# xmcd
#
# Track frame offsets:
#	150
#	12210
#	24187
#	40340
#	53572
#	67027
#	82095
#	98912
#	111095
#	121132
#	135115
#	144905
#
# Disc length: 2099 seconds
#
# Revision: 0
# Processed by: cddbd v1.5.1PL0 Copyright (c) Steve Scherf et al.
# Submitted via: audiograbber 1.81.02
#
DISCID=9008310c
DTITLE=Tom Astor - Ich freu mich auf zu Hause
DYEAR=1900
DGENRE=Country
TTITLE0=Hallo guten Morgen Deutschland
TTITLE1=Gute Fahrt auf allen Straßen
TTITLE2=Junger Adler (Ein Lied für (m)einen Sohn)
TTITLE3=Partner fahr rechts
TTITLE4=Der kleine Trucker
TTITLE5=Halt Abstand Junge
TTITLE6=Blue Bayou
TTITLE7=Trucker sind Partner
TTITLE8=Ihr Leben das ist ihr Laster
TTITLE9=Ich bin kein Dichter - kein Poet (Tom Astor and The Jordanaires)
TTITLE10=Sicht weg - Gas weg!
TTITLE11=Ich freu mich auf zu Hause
EXTD=
EXTT0=
EXTT1=
EXTT2=
EXTT3=
EXTT4=
EXTT5=
EXTT6=
EXTT7=
EXTT8=
EXTT9=
EXTT10=
EXTT11=
PLAYORDER=
